# Closed unit-radius hemisphere.
# Flat face: disk in the plane z = 0, outward normal -z. Dome: z >= 0, apex (0,0,1).
# Generated with 32 azimuthal x 8 polar divisions (258 vertices, 512 triangles).
# Analytic reference values for radius 1: volume 2*pi/3 = 2.0943951,
#   centroid z = 3/8 = 0.375, unit-mass inertia (0.259375, 0.259375, 0.4) about the centroid.
v 0.000000000 0.000000000 1.000000000
v 0.195090322 0.000000000 0.980785280
v 0.191341716 0.038060234 0.980785280
v 0.180239956 0.074657834 0.980785280
v 0.162211674 0.108386376 0.980785280
v 0.137949690 0.137949690 0.980785280
v 0.108386376 0.162211674 0.980785280
v 0.074657834 0.180239956 0.980785280
v 0.038060234 0.191341716 0.980785280
v 0.000000000 0.195090322 0.980785280
v -0.038060234 0.191341716 0.980785280
v -0.074657834 0.180239956 0.980785280
v -0.108386376 0.162211674 0.980785280
v -0.137949690 0.137949690 0.980785280
v -0.162211674 0.108386376 0.980785280
v -0.180239956 0.074657834 0.980785280
v -0.191341716 0.038060234 0.980785280
v -0.195090322 0.000000000 0.980785280
v -0.191341716 -0.038060234 0.980785280
v -0.180239956 -0.074657834 0.980785280
v -0.162211674 -0.108386376 0.980785280
v -0.137949690 -0.137949690 0.980785280
v -0.108386376 -0.162211674 0.980785280
v -0.074657834 -0.180239956 0.980785280
v -0.038060234 -0.191341716 0.980785280
v -0.000000000 -0.195090322 0.980785280
v 0.038060234 -0.191341716 0.980785280
v 0.074657834 -0.180239956 0.980785280
v 0.108386376 -0.162211674 0.980785280
v 0.137949690 -0.137949690 0.980785280
v 0.162211674 -0.108386376 0.980785280
v 0.180239956 -0.074657834 0.980785280
v 0.191341716 -0.038060234 0.980785280
v 0.382683432 0.000000000 0.923879533
v 0.375330278 0.074657834 0.923879533
v 0.353553391 0.146446609 0.923879533
v 0.318189645 0.212607524 0.923879533
v 0.270598050 0.270598050 0.923879533
v 0.212607524 0.318189645 0.923879533
v 0.146446609 0.353553391 0.923879533
v 0.074657834 0.375330278 0.923879533
v 0.000000000 0.382683432 0.923879533
v -0.074657834 0.375330278 0.923879533
v -0.146446609 0.353553391 0.923879533
v -0.212607524 0.318189645 0.923879533
v -0.270598050 0.270598050 0.923879533
v -0.318189645 0.212607524 0.923879533
v -0.353553391 0.146446609 0.923879533
v -0.375330278 0.074657834 0.923879533
v -0.382683432 0.000000000 0.923879533
v -0.375330278 -0.074657834 0.923879533
v -0.353553391 -0.146446609 0.923879533
v -0.318189645 -0.212607524 0.923879533
v -0.270598050 -0.270598050 0.923879533
v -0.212607524 -0.318189645 0.923879533
v -0.146446609 -0.353553391 0.923879533
v -0.074657834 -0.375330278 0.923879533
v -0.000000000 -0.382683432 0.923879533
v 0.074657834 -0.375330278 0.923879533
v 0.146446609 -0.353553391 0.923879533
v 0.212607524 -0.318189645 0.923879533
v 0.270598050 -0.270598050 0.923879533
v 0.318189645 -0.212607524 0.923879533
v 0.353553391 -0.146446609 0.923879533
v 0.375330278 -0.074657834 0.923879533
v 0.555570233 0.000000000 0.831469612
v 0.544895107 0.108386376 0.831469612
v 0.513279967 0.212607524 0.831469612
v 0.461939766 0.308658284 0.831469612
v 0.392847479 0.392847479 0.831469612
v 0.308658284 0.461939766 0.831469612
v 0.212607524 0.513279967 0.831469612
v 0.108386376 0.544895107 0.831469612
v 0.000000000 0.555570233 0.831469612
v -0.108386376 0.544895107 0.831469612
v -0.212607524 0.513279967 0.831469612
v -0.308658284 0.461939766 0.831469612
v -0.392847479 0.392847479 0.831469612
v -0.461939766 0.308658284 0.831469612
v -0.513279967 0.212607524 0.831469612
v -0.544895107 0.108386376 0.831469612
v -0.555570233 0.000000000 0.831469612
v -0.544895107 -0.108386376 0.831469612
v -0.513279967 -0.212607524 0.831469612
v -0.461939766 -0.308658284 0.831469612
v -0.392847479 -0.392847479 0.831469612
v -0.308658284 -0.461939766 0.831469612
v -0.212607524 -0.513279967 0.831469612
v -0.108386376 -0.544895107 0.831469612
v -0.000000000 -0.555570233 0.831469612
v 0.108386376 -0.544895107 0.831469612
v 0.212607524 -0.513279967 0.831469612
v 0.308658284 -0.461939766 0.831469612
v 0.392847479 -0.392847479 0.831469612
v 0.461939766 -0.308658284 0.831469612
v 0.513279967 -0.212607524 0.831469612
v 0.544895107 -0.108386376 0.831469612
v 0.707106781 0.000000000 0.707106781
v 0.693519923 0.137949690 0.707106781
v 0.653281482 0.270598050 0.707106781
v 0.587937801 0.392847479 0.707106781
v 0.500000000 0.500000000 0.707106781
v 0.392847479 0.587937801 0.707106781
v 0.270598050 0.653281482 0.707106781
v 0.137949690 0.693519923 0.707106781
v 0.000000000 0.707106781 0.707106781
v -0.137949690 0.693519923 0.707106781
v -0.270598050 0.653281482 0.707106781
v -0.392847479 0.587937801 0.707106781
v -0.500000000 0.500000000 0.707106781
v -0.587937801 0.392847479 0.707106781
v -0.653281482 0.270598050 0.707106781
v -0.693519923 0.137949690 0.707106781
v -0.707106781 0.000000000 0.707106781
v -0.693519923 -0.137949690 0.707106781
v -0.653281482 -0.270598050 0.707106781
v -0.587937801 -0.392847479 0.707106781
v -0.500000000 -0.500000000 0.707106781
v -0.392847479 -0.587937801 0.707106781
v -0.270598050 -0.653281482 0.707106781
v -0.137949690 -0.693519923 0.707106781
v -0.000000000 -0.707106781 0.707106781
v 0.137949690 -0.693519923 0.707106781
v 0.270598050 -0.653281482 0.707106781
v 0.392847479 -0.587937801 0.707106781
v 0.500000000 -0.500000000 0.707106781
v 0.587937801 -0.392847479 0.707106781
v 0.653281482 -0.270598050 0.707106781
v 0.693519923 -0.137949690 0.707106781
v 0.831469612 0.000000000 0.555570233
v 0.815493157 0.162211674 0.555570233
v 0.768177757 0.318189645 0.555570233
v 0.691341716 0.461939766 0.555570233
v 0.587937801 0.587937801 0.555570233
v 0.461939766 0.691341716 0.555570233
v 0.318189645 0.768177757 0.555570233
v 0.162211674 0.815493157 0.555570233
v 0.000000000 0.831469612 0.555570233
v -0.162211674 0.815493157 0.555570233
v -0.318189645 0.768177757 0.555570233
v -0.461939766 0.691341716 0.555570233
v -0.587937801 0.587937801 0.555570233
v -0.691341716 0.461939766 0.555570233
v -0.768177757 0.318189645 0.555570233
v -0.815493157 0.162211674 0.555570233
v -0.831469612 0.000000000 0.555570233
v -0.815493157 -0.162211674 0.555570233
v -0.768177757 -0.318189645 0.555570233
v -0.691341716 -0.461939766 0.555570233
v -0.587937801 -0.587937801 0.555570233
v -0.461939766 -0.691341716 0.555570233
v -0.318189645 -0.768177757 0.555570233
v -0.162211674 -0.815493157 0.555570233
v -0.000000000 -0.831469612 0.555570233
v 0.162211674 -0.815493157 0.555570233
v 0.318189645 -0.768177757 0.555570233
v 0.461939766 -0.691341716 0.555570233
v 0.587937801 -0.587937801 0.555570233
v 0.691341716 -0.461939766 0.555570233
v 0.768177757 -0.318189645 0.555570233
v 0.815493157 -0.162211674 0.555570233
v 0.923879533 0.000000000 0.382683432
v 0.906127446 0.180239956 0.382683432
v 0.853553391 0.353553391 0.382683432
v 0.768177757 0.513279967 0.382683432
v 0.653281482 0.653281482 0.382683432
v 0.513279967 0.768177757 0.382683432
v 0.353553391 0.853553391 0.382683432
v 0.180239956 0.906127446 0.382683432
v 0.000000000 0.923879533 0.382683432
v -0.180239956 0.906127446 0.382683432
v -0.353553391 0.853553391 0.382683432
v -0.513279967 0.768177757 0.382683432
v -0.653281482 0.653281482 0.382683432
v -0.768177757 0.513279967 0.382683432
v -0.853553391 0.353553391 0.382683432
v -0.906127446 0.180239956 0.382683432
v -0.923879533 0.000000000 0.382683432
v -0.906127446 -0.180239956 0.382683432
v -0.853553391 -0.353553391 0.382683432
v -0.768177757 -0.513279967 0.382683432
v -0.653281482 -0.653281482 0.382683432
v -0.513279967 -0.768177757 0.382683432
v -0.353553391 -0.853553391 0.382683432
v -0.180239956 -0.906127446 0.382683432
v -0.000000000 -0.923879533 0.382683432
v 0.180239956 -0.906127446 0.382683432
v 0.353553391 -0.853553391 0.382683432
v 0.513279967 -0.768177757 0.382683432
v 0.653281482 -0.653281482 0.382683432
v 0.768177757 -0.513279967 0.382683432
v 0.853553391 -0.353553391 0.382683432
v 0.906127446 -0.180239956 0.382683432
v 0.980785280 0.000000000 0.195090322
v 0.961939766 0.191341716 0.195090322
v 0.906127446 0.375330278 0.195090322
v 0.815493157 0.544895107 0.195090322
v 0.693519923 0.693519923 0.195090322
v 0.544895107 0.815493157 0.195090322
v 0.375330278 0.906127446 0.195090322
v 0.191341716 0.961939766 0.195090322
v 0.000000000 0.980785280 0.195090322
v -0.191341716 0.961939766 0.195090322
v -0.375330278 0.906127446 0.195090322
v -0.544895107 0.815493157 0.195090322
v -0.693519923 0.693519923 0.195090322
v -0.815493157 0.544895107 0.195090322
v -0.906127446 0.375330278 0.195090322
v -0.961939766 0.191341716 0.195090322
v -0.980785280 0.000000000 0.195090322
v -0.961939766 -0.191341716 0.195090322
v -0.906127446 -0.375330278 0.195090322
v -0.815493157 -0.544895107 0.195090322
v -0.693519923 -0.693519923 0.195090322
v -0.544895107 -0.815493157 0.195090322
v -0.375330278 -0.906127446 0.195090322
v -0.191341716 -0.961939766 0.195090322
v -0.000000000 -0.980785280 0.195090322
v 0.191341716 -0.961939766 0.195090322
v 0.375330278 -0.906127446 0.195090322
v 0.544895107 -0.815493157 0.195090322
v 0.693519923 -0.693519923 0.195090322
v 0.815493157 -0.544895107 0.195090322
v 0.906127446 -0.375330278 0.195090322
v 0.961939766 -0.191341716 0.195090322
v 1.000000000 0.000000000 0.000000000
v 0.980785280 0.195090322 0.000000000
v 0.923879533 0.382683432 0.000000000
v 0.831469612 0.555570233 0.000000000
v 0.707106781 0.707106781 0.000000000
v 0.555570233 0.831469612 0.000000000
v 0.382683432 0.923879533 0.000000000
v 0.195090322 0.980785280 0.000000000
v 0.000000000 1.000000000 0.000000000
v -0.195090322 0.980785280 0.000000000
v -0.382683432 0.923879533 0.000000000
v -0.555570233 0.831469612 0.000000000
v -0.707106781 0.707106781 0.000000000
v -0.831469612 0.555570233 0.000000000
v -0.923879533 0.382683432 0.000000000
v -0.980785280 0.195090322 0.000000000
v -1.000000000 0.000000000 0.000000000
v -0.980785280 -0.195090322 0.000000000
v -0.923879533 -0.382683432 0.000000000
v -0.831469612 -0.555570233 0.000000000
v -0.707106781 -0.707106781 0.000000000
v -0.555570233 -0.831469612 0.000000000
v -0.382683432 -0.923879533 0.000000000
v -0.195090322 -0.980785280 0.000000000
v -0.000000000 -1.000000000 0.000000000
v 0.195090322 -0.980785280 0.000000000
v 0.382683432 -0.923879533 0.000000000
v 0.555570233 -0.831469612 0.000000000
v 0.707106781 -0.707106781 0.000000000
v 0.831469612 -0.555570233 0.000000000
v 0.923879533 -0.382683432 0.000000000
v 0.980785280 -0.195090322 0.000000000
v 0.000000000 0.000000000 0.000000000
f 1 2 3
f 1 3 4
f 1 4 5
f 1 5 6
f 1 6 7
f 1 7 8
f 1 8 9
f 1 9 10
f 1 10 11
f 1 11 12
f 1 12 13
f 1 13 14
f 1 14 15
f 1 15 16
f 1 16 17
f 1 17 18
f 1 18 19
f 1 19 20
f 1 20 21
f 1 21 22
f 1 22 23
f 1 23 24
f 1 24 25
f 1 25 26
f 1 26 27
f 1 27 28
f 1 28 29
f 1 29 30
f 1 30 31
f 1 31 32
f 1 32 33
f 1 33 2
f 2 34 35
f 2 35 3
f 3 35 36
f 3 36 4
f 4 36 37
f 4 37 5
f 5 37 38
f 5 38 6
f 6 38 39
f 6 39 7
f 7 39 40
f 7 40 8
f 8 40 41
f 8 41 9
f 9 41 42
f 9 42 10
f 10 42 43
f 10 43 11
f 11 43 44
f 11 44 12
f 12 44 45
f 12 45 13
f 13 45 46
f 13 46 14
f 14 46 47
f 14 47 15
f 15 47 48
f 15 48 16
f 16 48 49
f 16 49 17
f 17 49 50
f 17 50 18
f 18 50 51
f 18 51 19
f 19 51 52
f 19 52 20
f 20 52 53
f 20 53 21
f 21 53 54
f 21 54 22
f 22 54 55
f 22 55 23
f 23 55 56
f 23 56 24
f 24 56 57
f 24 57 25
f 25 57 58
f 25 58 26
f 26 58 59
f 26 59 27
f 27 59 60
f 27 60 28
f 28 60 61
f 28 61 29
f 29 61 62
f 29 62 30
f 30 62 63
f 30 63 31
f 31 63 64
f 31 64 32
f 32 64 65
f 32 65 33
f 33 65 34
f 33 34 2
f 34 66 67
f 34 67 35
f 35 67 68
f 35 68 36
f 36 68 69
f 36 69 37
f 37 69 70
f 37 70 38
f 38 70 71
f 38 71 39
f 39 71 72
f 39 72 40
f 40 72 73
f 40 73 41
f 41 73 74
f 41 74 42
f 42 74 75
f 42 75 43
f 43 75 76
f 43 76 44
f 44 76 77
f 44 77 45
f 45 77 78
f 45 78 46
f 46 78 79
f 46 79 47
f 47 79 80
f 47 80 48
f 48 80 81
f 48 81 49
f 49 81 82
f 49 82 50
f 50 82 83
f 50 83 51
f 51 83 84
f 51 84 52
f 52 84 85
f 52 85 53
f 53 85 86
f 53 86 54
f 54 86 87
f 54 87 55
f 55 87 88
f 55 88 56
f 56 88 89
f 56 89 57
f 57 89 90
f 57 90 58
f 58 90 91
f 58 91 59
f 59 91 92
f 59 92 60
f 60 92 93
f 60 93 61
f 61 93 94
f 61 94 62
f 62 94 95
f 62 95 63
f 63 95 96
f 63 96 64
f 64 96 97
f 64 97 65
f 65 97 66
f 65 66 34
f 66 98 99
f 66 99 67
f 67 99 100
f 67 100 68
f 68 100 101
f 68 101 69
f 69 101 102
f 69 102 70
f 70 102 103
f 70 103 71
f 71 103 104
f 71 104 72
f 72 104 105
f 72 105 73
f 73 105 106
f 73 106 74
f 74 106 107
f 74 107 75
f 75 107 108
f 75 108 76
f 76 108 109
f 76 109 77
f 77 109 110
f 77 110 78
f 78 110 111
f 78 111 79
f 79 111 112
f 79 112 80
f 80 112 113
f 80 113 81
f 81 113 114
f 81 114 82
f 82 114 115
f 82 115 83
f 83 115 116
f 83 116 84
f 84 116 117
f 84 117 85
f 85 117 118
f 85 118 86
f 86 118 119
f 86 119 87
f 87 119 120
f 87 120 88
f 88 120 121
f 88 121 89
f 89 121 122
f 89 122 90
f 90 122 123
f 90 123 91
f 91 123 124
f 91 124 92
f 92 124 125
f 92 125 93
f 93 125 126
f 93 126 94
f 94 126 127
f 94 127 95
f 95 127 128
f 95 128 96
f 96 128 129
f 96 129 97
f 97 129 98
f 97 98 66
f 98 130 131
f 98 131 99
f 99 131 132
f 99 132 100
f 100 132 133
f 100 133 101
f 101 133 134
f 101 134 102
f 102 134 135
f 102 135 103
f 103 135 136
f 103 136 104
f 104 136 137
f 104 137 105
f 105 137 138
f 105 138 106
f 106 138 139
f 106 139 107
f 107 139 140
f 107 140 108
f 108 140 141
f 108 141 109
f 109 141 142
f 109 142 110
f 110 142 143
f 110 143 111
f 111 143 144
f 111 144 112
f 112 144 145
f 112 145 113
f 113 145 146
f 113 146 114
f 114 146 147
f 114 147 115
f 115 147 148
f 115 148 116
f 116 148 149
f 116 149 117
f 117 149 150
f 117 150 118
f 118 150 151
f 118 151 119
f 119 151 152
f 119 152 120
f 120 152 153
f 120 153 121
f 121 153 154
f 121 154 122
f 122 154 155
f 122 155 123
f 123 155 156
f 123 156 124
f 124 156 157
f 124 157 125
f 125 157 158
f 125 158 126
f 126 158 159
f 126 159 127
f 127 159 160
f 127 160 128
f 128 160 161
f 128 161 129
f 129 161 130
f 129 130 98
f 130 162 163
f 130 163 131
f 131 163 164
f 131 164 132
f 132 164 165
f 132 165 133
f 133 165 166
f 133 166 134
f 134 166 167
f 134 167 135
f 135 167 168
f 135 168 136
f 136 168 169
f 136 169 137
f 137 169 170
f 137 170 138
f 138 170 171
f 138 171 139
f 139 171 172
f 139 172 140
f 140 172 173
f 140 173 141
f 141 173 174
f 141 174 142
f 142 174 175
f 142 175 143
f 143 175 176
f 143 176 144
f 144 176 177
f 144 177 145
f 145 177 178
f 145 178 146
f 146 178 179
f 146 179 147
f 147 179 180
f 147 180 148
f 148 180 181
f 148 181 149
f 149 181 182
f 149 182 150
f 150 182 183
f 150 183 151
f 151 183 184
f 151 184 152
f 152 184 185
f 152 185 153
f 153 185 186
f 153 186 154
f 154 186 187
f 154 187 155
f 155 187 188
f 155 188 156
f 156 188 189
f 156 189 157
f 157 189 190
f 157 190 158
f 158 190 191
f 158 191 159
f 159 191 192
f 159 192 160
f 160 192 193
f 160 193 161
f 161 193 162
f 161 162 130
f 162 194 195
f 162 195 163
f 163 195 196
f 163 196 164
f 164 196 197
f 164 197 165
f 165 197 198
f 165 198 166
f 166 198 199
f 166 199 167
f 167 199 200
f 167 200 168
f 168 200 201
f 168 201 169
f 169 201 202
f 169 202 170
f 170 202 203
f 170 203 171
f 171 203 204
f 171 204 172
f 172 204 205
f 172 205 173
f 173 205 206
f 173 206 174
f 174 206 207
f 174 207 175
f 175 207 208
f 175 208 176
f 176 208 209
f 176 209 177
f 177 209 210
f 177 210 178
f 178 210 211
f 178 211 179
f 179 211 212
f 179 212 180
f 180 212 213
f 180 213 181
f 181 213 214
f 181 214 182
f 182 214 215
f 182 215 183
f 183 215 216
f 183 216 184
f 184 216 217
f 184 217 185
f 185 217 218
f 185 218 186
f 186 218 219
f 186 219 187
f 187 219 220
f 187 220 188
f 188 220 221
f 188 221 189
f 189 221 222
f 189 222 190
f 190 222 223
f 190 223 191
f 191 223 224
f 191 224 192
f 192 224 225
f 192 225 193
f 193 225 194
f 193 194 162
f 194 226 227
f 194 227 195
f 195 227 228
f 195 228 196
f 196 228 229
f 196 229 197
f 197 229 230
f 197 230 198
f 198 230 231
f 198 231 199
f 199 231 232
f 199 232 200
f 200 232 233
f 200 233 201
f 201 233 234
f 201 234 202
f 202 234 235
f 202 235 203
f 203 235 236
f 203 236 204
f 204 236 237
f 204 237 205
f 205 237 238
f 205 238 206
f 206 238 239
f 206 239 207
f 207 239 240
f 207 240 208
f 208 240 241
f 208 241 209
f 209 241 242
f 209 242 210
f 210 242 243
f 210 243 211
f 211 243 244
f 211 244 212
f 212 244 245
f 212 245 213
f 213 245 246
f 213 246 214
f 214 246 247
f 214 247 215
f 215 247 248
f 215 248 216
f 216 248 249
f 216 249 217
f 217 249 250
f 217 250 218
f 218 250 251
f 218 251 219
f 219 251 252
f 219 252 220
f 220 252 253
f 220 253 221
f 221 253 254
f 221 254 222
f 222 254 255
f 222 255 223
f 223 255 256
f 223 256 224
f 224 256 257
f 224 257 225
f 225 257 226
f 225 226 194
f 258 227 226
f 258 228 227
f 258 229 228
f 258 230 229
f 258 231 230
f 258 232 231
f 258 233 232
f 258 234 233
f 258 235 234
f 258 236 235
f 258 237 236
f 258 238 237
f 258 239 238
f 258 240 239
f 258 241 240
f 258 242 241
f 258 243 242
f 258 244 243
f 258 245 244
f 258 246 245
f 258 247 246
f 258 248 247
f 258 249 248
f 258 250 249
f 258 251 250
f 258 252 251
f 258 253 252
f 258 254 253
f 258 255 254
f 258 256 255
f 258 257 256
f 258 226 257
