# Blender 4.2.0
# www.blender.org
o Cube.001
v 1.081676 -1.154564 -0.597627
v -0.776235 1.615504 -0.455449
v 0.924561 -1.377500 0.678477
v -1.767262 0.112063 0.600604
v -1.086457 1.211665 0.702934
v 1.856837 0.073914 0.585537
v 1.071781 0.554146 -0.478804
v -1.308193 -1.250208 -0.261916
v 1.039498 1.609450 0.434580
v -0.353210 -0.300528 -0.859194
v -0.791794 -0.925844 0.809921
v -1.436129 0.223079 -0.435568
v 0.601437 1.651606 -0.618107
vn -0.6816 -0.5414 0.4922
vn 0.2633 -0.0096 -0.9647
vn 0.2185 0.0690 -0.9734
vn 0.0965 0.1481 0.9842
vn 0.8759 0.3308 -0.3512
vn -0.1200 0.1793 -0.9765
vn -0.1857 0.0236 0.9823
vn 0.0925 0.0625 0.9937
vn -0.9003 0.4253 -0.0928
vn -0.1065 -0.4504 -0.8864
vn 0.0745 -0.9639 0.2558
vn -0.2636 -0.9442 -0.1974
vn -0.9420 -0.1188 -0.3138
vn 0.0146 0.9429 0.3326
vn 0.8416 -0.5400 0.0093
vn -0.3055 0.1313 -0.9431
vn 0.8135 0.0450 -0.5798
vn -0.8232 0.5289 -0.2064
vn -0.1694 0.9794 0.1097
vn -0.4194 -0.1421 -0.8966
vn 0.0517 0.0307 0.9982
vn 0.8158 0.3925 -0.4247
vt 0.862402 0.328196
vt 0.721290 0.257014
vt 0.910770 0.107754
vt 0.182423 0.678285
vt 0.263540 0.455670
vt 0.269008 0.631044
vt 0.307604 0.718898
vt 0.335575 0.267841
vt 0.158015 0.386691
vt 0.309226 0.059946
vt 0.400273 0.303629
vt 0.386105 0.063085
vt 0.528205 0.267610
vt 0.084977 0.437173
vt 0.013717 0.233860
vt 0.024193 0.391371
vt 0.117299 0.044799
vt 0.939564 0.506329
vt 0.892340 0.662569
vt 0.866875 0.447217
vt 0.068021 0.743711
vt 0.646745 0.655823
vt 0.435234 0.700534
vt 0.398479 0.430437
vt 0.630874 0.446942
vt 0.475921 0.402426
vt 0.784942 0.103129
vt 0.705977 0.392767
vt 0.579472 0.365264
vt 0.023535 0.595454
vt 0.672599 0.279579
vt 0.572904 0.027515
vt 1.000000 0.606532
vt 0.999879 0.706758
vt 0.673501 0.637876
s 0
f 11/1/1 4/2/1 8/3/1
f 10/4/2 13/5/2 7/6/2
f 10/4/3 7/6/3 1/7/3
f 9/8/4 5/9/4 6/10/4
f 13/11/5 9/12/5 7/13/5
f 10/4/6 2/14/6 13/5/6
f 11/15/7 5/9/7 4/16/7
f 5/9/8 11/15/8 3/17/8
f 12/18/9 5/19/9 2/20/9
f 8/21/10 10/4/10 1/7/10
f 11/22/11 8/23/11 1/24/11
f 3/25/12 11/22/12 1/26/12
f 4/2/13 12/27/13 8/3/13
f 2/20/14 5/19/14 13/28/14
f 1/26/15 6/29/15 3/25/15
f 10/4/16 12/30/16 2/14/16
f 1/31/17 7/13/17 6/32/17
f 12/33/18 4/34/18 5/19/18
f 13/28/19 5/19/19 9/35/19
f 8/21/20 12/30/20 10/4/20
f 6/10/21 5/9/21 3/17/21
f 7/13/22 9/12/22 6/32/22
