# Closed unit-radius spherical wedge (quarter sphere).
# Azimuth span 89.600 deg about the z axis, full polar range.
# Generated with 12 azimuthal x 24 polar divisions (302 vertices, 600 triangles).
# Analytic reference values for radius 1 and a 90 deg span: volume pi/3 = 1.0471976,
#   centroid (3/8, 3/8, 0) = (0.375, 0.375, 0).
v 0.000000000 0.000000000 1.000000000
v 0.000000000 0.000000000 -1.000000000
v 0.000000000 0.000000000 0.000000000
v 0.130526192 0.000000000 0.991444861
v 0.129419412 0.016961797 0.991444861
v 0.126117843 0.033635942 0.991444861
v 0.120677473 0.049739665 0.991444861
v 0.113190566 0.064999866 0.991444861
v 0.103784090 0.079157751 0.991444861
v 0.092617566 0.091973220 0.991444861
v 0.079880366 0.103228940 0.991444861
v 0.065788495 0.112734027 0.991444861
v 0.050580934 0.120327287 0.991444861
v 0.034515584 0.125879948 0.991444861
v 0.017864894 0.129297844 0.991444861
v 0.000911237 0.130523011 0.991444861
v 0.258819045 0.000000000 0.965925826
v 0.256624423 0.033633372 0.965925826
v 0.250077774 0.066696365 0.965925826
v 0.239290122 0.098628271 0.965925826
v 0.224444410 0.128887566 0.965925826
v 0.205792405 0.156961091 0.965925826
v 0.183650420 0.182372753 0.965925826
v 0.158393956 0.204691604 0.965925826
v 0.130451330 0.223539143 0.965925826
v 0.100296414 0.238595741 0.965925826
v 0.068440597 0.249606055 0.965925826
v 0.035424114 0.256383366 0.965925826
v 0.001806883 0.258812738 0.965925826
v 0.382683432 0.000000000 0.923879533
v 0.379438518 0.049729471 0.923879533
v 0.369758805 0.098615593 0.923879533
v 0.353808450 0.145829320 0.923879533
v 0.331857949 0.190569964 0.923879533
v 0.304279556 0.232078783 0.923879533
v 0.271540965 0.269651838 0.923879533
v 0.234197382 0.302651938 0.923879533
v 0.192882107 0.330519443 0.923879533
v 0.148295795 0.352781755 0.923879533
v 0.101194573 0.369061333 0.923879533
v 0.052377218 0.379082097 0.923879533
v 0.002671613 0.382674107 0.923879533
v 0.500000000 0.000000000 0.866025404
v 0.495760315 0.064974685 0.866025404
v 0.483113161 0.128847482 0.866025404
v 0.462273017 0.190535188 0.866025404
v 0.433593305 0.248991658 0.866025404
v 0.397560398 0.303225543 0.866025404
v 0.354785368 0.352317105 0.866025404
v 0.305993626 0.395433814 0.866025404
v 0.252012618 0.431844463 0.866025404
v 0.193757793 0.460931576 0.866025404
v 0.132217081 0.482201870 0.866025404
v 0.068434134 0.495294629 0.866025404
v 0.003490630 0.499987815 0.866025404
v 0.608761429 0.000000000 0.793353340
v 0.603599516 0.079108165 0.793353340
v 0.588201317 0.156874755 0.793353340
v 0.562827965 0.231980947 0.793353340
v 0.527909760 0.303153035 0.793353340
v 0.484038872 0.369184029 0.793353340
v 0.431959296 0.428954129 0.793353340
v 0.372554234 0.481449707 0.793353340
v 0.306831122 0.525780505 0.793353340
v 0.235904542 0.561194730 0.793353340
v 0.160977318 0.587091799 0.793353340
v 0.083320122 0.603032532 0.793353340
v 0.004249922 0.608746594 0.793353340
v 0.707106781 0.000000000 0.707106781
v 0.701110962 0.091888081 0.707106781
v 0.683225184 0.182217857 0.707106781
v 0.653752770 0.269457447 0.707106781
v 0.613193533 0.352127379 0.707106781
v 0.562235307 0.428825675 0.707106781
v 0.501742280 0.498251628 0.707106781
v 0.432740336 0.559227862 0.707106781
v 0.356399662 0.610720297 0.707106781
v 0.274014899 0.651855686 0.707106781
v 0.186983189 0.681936424 0.707106781
v 0.096780480 0.700452381 0.707106781
v 0.004936496 0.707089549 0.707106781
v 0.793353340 0.000000000 0.608761429
v 0.786626204 0.103095767 0.608761429
v 0.766558880 0.204443161 0.608761429
v 0.733491684 0.302323456 0.608761429
v 0.687985394 0.395076727 0.608761429
v 0.630811740 0.481129994 0.608761429
v 0.562940314 0.559023904 0.608761429
v 0.485522130 0.627437474 0.608761429
v 0.399870104 0.685210495 0.608761429
v 0.307436785 0.731363211 0.608761429
v 0.209789726 0.765112929 0.608761429
v 0.108584897 0.785887296 0.608761429
v 0.005538606 0.793334007 0.608761429
v 0.866025404 0.000000000 0.500000000
v 0.858682055 0.112539456 0.500000000
v 0.836776541 0.223170386 0.500000000
v 0.800680352 0.330016627 0.500000000
v 0.751005635 0.431266202 0.500000000
v 0.688594809 0.525202046 0.500000000
v 0.614506284 0.610231126 0.500000000
v 0.529996507 0.684911456 0.500000000
v 0.436498658 0.747976552 0.500000000
v 0.335598342 0.798356908 0.500000000
v 0.229006702 0.835198138 0.500000000
v 0.118531397 0.857875462 0.500000000
v 0.006045949 0.866004299 0.500000000
v 0.923879533 0.000000000 0.382683432
v 0.916045617 0.120057564 0.382683432
v 0.892676723 0.238079103 0.382683432
v 0.854169157 0.352063121 0.382683432
v 0.801175960 0.460076593 0.382683432
v 0.734595830 0.560287745 0.382683432
v 0.655557880 0.650997124 0.382683432
v 0.565402496 0.730666414 0.382683432
v 0.465658599 0.797944522 0.382683432
v 0.358017719 0.851690498 0.382683432
v 0.244305310 0.890992877 0.382683432
v 0.126449791 0.915185140 0.382683432
v 0.006449844 0.923857018 0.382683432
v 0.965925826 0.000000000 0.258819045
v 0.957735384 0.125521453 0.258819045
v 0.933302958 0.248914221 0.258819045
v 0.893042891 0.368085718 0.258819045
v 0.837637943 0.481014945 0.258819045
v 0.768027712 0.585786766 0.258819045
v 0.685392700 0.680624381 0.258819045
v 0.591134292 0.763919466 0.258819045
v 0.486850992 0.834259440 0.258819045
v 0.374311313 0.890451426 0.258819045
v 0.255423786 0.931542480 0.258819045
v 0.132204595 0.956835747 0.258819045
v 0.006743380 0.965902287 0.258819045
v 0.991444861 0.000000000 0.130526192
v 0.983038034 0.128837636 0.130526192
v 0.957960122 0.255490348 0.130526192
v 0.916636414 0.377810266 0.130526192
v 0.859767709 0.493722999 0.130526192
v 0.788318428 0.601262812 0.130526192
v 0.703500261 0.698605967 0.130526192
v 0.606751616 0.784101645 0.130526192
v 0.499713230 0.856299948 0.130526192
v 0.384200337 0.913976485 0.130526192
v 0.262171891 0.956153132 0.130526192
v 0.135697341 0.982114629 0.130526192
v 0.006921535 0.991420701 0.130526192
v 1.000000000 0.000000000 0.000000000
v 0.991520631 0.129949371 0.000000000
v 0.966226322 0.257694964 0.000000000
v 0.924546034 0.381070376 0.000000000
v 0.867186611 0.497983315 0.000000000
v 0.795120796 0.606451085 0.000000000
v 0.709570737 0.704634210 0.000000000
v 0.611987252 0.790867627 0.000000000
v 0.504025235 0.863688927 0.000000000
v 0.387515586 0.921863152 0.000000000
v 0.264434162 0.964403740 0.000000000
v 0.136868268 0.990589258 0.000000000
v 0.006981260 0.999975631 0.000000000
v 0.991444861 0.000000000 -0.130526192
v 0.983038034 0.128837636 -0.130526192
v 0.957960122 0.255490348 -0.130526192
v 0.916636414 0.377810266 -0.130526192
v 0.859767709 0.493722999 -0.130526192
v 0.788318428 0.601262812 -0.130526192
v 0.703500261 0.698605967 -0.130526192
v 0.606751616 0.784101645 -0.130526192
v 0.499713230 0.856299948 -0.130526192
v 0.384200337 0.913976485 -0.130526192
v 0.262171891 0.956153132 -0.130526192
v 0.135697341 0.982114629 -0.130526192
v 0.006921535 0.991420701 -0.130526192
v 0.965925826 0.000000000 -0.258819045
v 0.957735384 0.125521453 -0.258819045
v 0.933302958 0.248914221 -0.258819045
v 0.893042891 0.368085718 -0.258819045
v 0.837637943 0.481014945 -0.258819045
v 0.768027712 0.585786766 -0.258819045
v 0.685392700 0.680624381 -0.258819045
v 0.591134292 0.763919466 -0.258819045
v 0.486850992 0.834259440 -0.258819045
v 0.374311313 0.890451426 -0.258819045
v 0.255423786 0.931542480 -0.258819045
v 0.132204595 0.956835747 -0.258819045
v 0.006743380 0.965902287 -0.258819045
v 0.923879533 0.000000000 -0.382683432
v 0.916045617 0.120057564 -0.382683432
v 0.892676723 0.238079103 -0.382683432
v 0.854169157 0.352063121 -0.382683432
v 0.801175960 0.460076593 -0.382683432
v 0.734595830 0.560287745 -0.382683432
v 0.655557880 0.650997124 -0.382683432
v 0.565402496 0.730666414 -0.382683432
v 0.465658599 0.797944522 -0.382683432
v 0.358017719 0.851690498 -0.382683432
v 0.244305310 0.890992877 -0.382683432
v 0.126449791 0.915185140 -0.382683432
v 0.006449844 0.923857018 -0.382683432
v 0.866025404 0.000000000 -0.500000000
v 0.858682055 0.112539456 -0.500000000
v 0.836776541 0.223170386 -0.500000000
v 0.800680352 0.330016627 -0.500000000
v 0.751005635 0.431266202 -0.500000000
v 0.688594809 0.525202046 -0.500000000
v 0.614506284 0.610231126 -0.500000000
v 0.529996507 0.684911456 -0.500000000
v 0.436498658 0.747976552 -0.500000000
v 0.335598342 0.798356908 -0.500000000
v 0.229006702 0.835198138 -0.500000000
v 0.118531397 0.857875462 -0.500000000
v 0.006045949 0.866004299 -0.500000000
v 0.793353340 0.000000000 -0.608761429
v 0.786626204 0.103095767 -0.608761429
v 0.766558880 0.204443161 -0.608761429
v 0.733491684 0.302323456 -0.608761429
v 0.687985394 0.395076727 -0.608761429
v 0.630811740 0.481129994 -0.608761429
v 0.562940314 0.559023904 -0.608761429
v 0.485522130 0.627437474 -0.608761429
v 0.399870104 0.685210495 -0.608761429
v 0.307436785 0.731363211 -0.608761429
v 0.209789726 0.765112929 -0.608761429
v 0.108584897 0.785887296 -0.608761429
v 0.005538606 0.793334007 -0.608761429
v 0.707106781 0.000000000 -0.707106781
v 0.701110962 0.091888081 -0.707106781
v 0.683225184 0.182217857 -0.707106781
v 0.653752770 0.269457447 -0.707106781
v 0.613193533 0.352127379 -0.707106781
v 0.562235307 0.428825675 -0.707106781
v 0.501742280 0.498251628 -0.707106781
v 0.432740336 0.559227862 -0.707106781
v 0.356399662 0.610720297 -0.707106781
v 0.274014899 0.651855686 -0.707106781
v 0.186983189 0.681936424 -0.707106781
v 0.096780480 0.700452381 -0.707106781
v 0.004936496 0.707089549 -0.707106781
v 0.608761429 0.000000000 -0.793353340
v 0.603599516 0.079108165 -0.793353340
v 0.588201317 0.156874755 -0.793353340
v 0.562827965 0.231980947 -0.793353340
v 0.527909760 0.303153035 -0.793353340
v 0.484038872 0.369184029 -0.793353340
v 0.431959296 0.428954129 -0.793353340
v 0.372554234 0.481449707 -0.793353340
v 0.306831122 0.525780505 -0.793353340
v 0.235904542 0.561194730 -0.793353340
v 0.160977318 0.587091799 -0.793353340
v 0.083320122 0.603032532 -0.793353340
v 0.004249922 0.608746594 -0.793353340
v 0.500000000 0.000000000 -0.866025404
v 0.495760315 0.064974685 -0.866025404
v 0.483113161 0.128847482 -0.866025404
v 0.462273017 0.190535188 -0.866025404
v 0.433593305 0.248991658 -0.866025404
v 0.397560398 0.303225543 -0.866025404
v 0.354785368 0.352317105 -0.866025404
v 0.305993626 0.395433814 -0.866025404
v 0.252012618 0.431844463 -0.866025404
v 0.193757793 0.460931576 -0.866025404
v 0.132217081 0.482201870 -0.866025404
v 0.068434134 0.495294629 -0.866025404
v 0.003490630 0.499987815 -0.866025404
v 0.382683432 0.000000000 -0.923879533
v 0.379438518 0.049729471 -0.923879533
v 0.369758805 0.098615593 -0.923879533
v 0.353808450 0.145829320 -0.923879533
v 0.331857949 0.190569964 -0.923879533
v 0.304279556 0.232078783 -0.923879533
v 0.271540965 0.269651838 -0.923879533
v 0.234197382 0.302651938 -0.923879533
v 0.192882107 0.330519443 -0.923879533
v 0.148295795 0.352781755 -0.923879533
v 0.101194573 0.369061333 -0.923879533
v 0.052377218 0.379082097 -0.923879533
v 0.002671613 0.382674107 -0.923879533
v 0.258819045 0.000000000 -0.965925826
v 0.256624423 0.033633372 -0.965925826
v 0.250077774 0.066696365 -0.965925826
v 0.239290122 0.098628271 -0.965925826
v 0.224444410 0.128887566 -0.965925826
v 0.205792405 0.156961091 -0.965925826
v 0.183650420 0.182372753 -0.965925826
v 0.158393956 0.204691604 -0.965925826
v 0.130451330 0.223539143 -0.965925826
v 0.100296414 0.238595741 -0.965925826
v 0.068440597 0.249606055 -0.965925826
v 0.035424114 0.256383366 -0.965925826
v 0.001806883 0.258812738 -0.965925826
v 0.130526192 0.000000000 -0.991444861
v 0.129419412 0.016961797 -0.991444861
v 0.126117843 0.033635942 -0.991444861
v 0.120677473 0.049739665 -0.991444861
v 0.113190566 0.064999866 -0.991444861
v 0.103784090 0.079157751 -0.991444861
v 0.092617566 0.091973220 -0.991444861
v 0.079880366 0.103228940 -0.991444861
v 0.065788495 0.112734027 -0.991444861
v 0.050580934 0.120327287 -0.991444861
v 0.034515584 0.125879948 -0.991444861
v 0.017864894 0.129297844 -0.991444861
v 0.000911237 0.130523011 -0.991444861
f 1 4 5
f 1 5 6
f 1 6 7
f 1 7 8
f 1 8 9
f 1 9 10
f 1 10 11
f 1 11 12
f 1 12 13
f 1 13 14
f 1 14 15
f 1 15 16
f 4 17 18
f 4 18 5
f 5 18 19
f 5 19 6
f 6 19 20
f 6 20 7
f 7 20 21
f 7 21 8
f 8 21 22
f 8 22 9
f 9 22 23
f 9 23 10
f 10 23 24
f 10 24 11
f 11 24 25
f 11 25 12
f 12 25 26
f 12 26 13
f 13 26 27
f 13 27 14
f 14 27 28
f 14 28 15
f 15 28 29
f 15 29 16
f 17 30 31
f 17 31 18
f 18 31 32
f 18 32 19
f 19 32 33
f 19 33 20
f 20 33 34
f 20 34 21
f 21 34 35
f 21 35 22
f 22 35 36
f 22 36 23
f 23 36 37
f 23 37 24
f 24 37 38
f 24 38 25
f 25 38 39
f 25 39 26
f 26 39 40
f 26 40 27
f 27 40 41
f 27 41 28
f 28 41 42
f 28 42 29
f 30 43 44
f 30 44 31
f 31 44 45
f 31 45 32
f 32 45 46
f 32 46 33
f 33 46 47
f 33 47 34
f 34 47 48
f 34 48 35
f 35 48 49
f 35 49 36
f 36 49 50
f 36 50 37
f 37 50 51
f 37 51 38
f 38 51 52
f 38 52 39
f 39 52 53
f 39 53 40
f 40 53 54
f 40 54 41
f 41 54 55
f 41 55 42
f 43 56 57
f 43 57 44
f 44 57 58
f 44 58 45
f 45 58 59
f 45 59 46
f 46 59 60
f 46 60 47
f 47 60 61
f 47 61 48
f 48 61 62
f 48 62 49
f 49 62 63
f 49 63 50
f 50 63 64
f 50 64 51
f 51 64 65
f 51 65 52
f 52 65 66
f 52 66 53
f 53 66 67
f 53 67 54
f 54 67 68
f 54 68 55
f 56 69 70
f 56 70 57
f 57 70 71
f 57 71 58
f 58 71 72
f 58 72 59
f 59 72 73
f 59 73 60
f 60 73 74
f 60 74 61
f 61 74 75
f 61 75 62
f 62 75 76
f 62 76 63
f 63 76 77
f 63 77 64
f 64 77 78
f 64 78 65
f 65 78 79
f 65 79 66
f 66 79 80
f 66 80 67
f 67 80 81
f 67 81 68
f 69 82 83
f 69 83 70
f 70 83 84
f 70 84 71
f 71 84 85
f 71 85 72
f 72 85 86
f 72 86 73
f 73 86 87
f 73 87 74
f 74 87 88
f 74 88 75
f 75 88 89
f 75 89 76
f 76 89 90
f 76 90 77
f 77 90 91
f 77 91 78
f 78 91 92
f 78 92 79
f 79 92 93
f 79 93 80
f 80 93 94
f 80 94 81
f 82 95 96
f 82 96 83
f 83 96 97
f 83 97 84
f 84 97 98
f 84 98 85
f 85 98 99
f 85 99 86
f 86 99 100
f 86 100 87
f 87 100 101
f 87 101 88
f 88 101 102
f 88 102 89
f 89 102 103
f 89 103 90
f 90 103 104
f 90 104 91
f 91 104 105
f 91 105 92
f 92 105 106
f 92 106 93
f 93 106 107
f 93 107 94
f 95 108 109
f 95 109 96
f 96 109 110
f 96 110 97
f 97 110 111
f 97 111 98
f 98 111 112
f 98 112 99
f 99 112 113
f 99 113 100
f 100 113 114
f 100 114 101
f 101 114 115
f 101 115 102
f 102 115 116
f 102 116 103
f 103 116 117
f 103 117 104
f 104 117 118
f 104 118 105
f 105 118 119
f 105 119 106
f 106 119 120
f 106 120 107
f 108 121 122
f 108 122 109
f 109 122 123
f 109 123 110
f 110 123 124
f 110 124 111
f 111 124 125
f 111 125 112
f 112 125 126
f 112 126 113
f 113 126 127
f 113 127 114
f 114 127 128
f 114 128 115
f 115 128 129
f 115 129 116
f 116 129 130
f 116 130 117
f 117 130 131
f 117 131 118
f 118 131 132
f 118 132 119
f 119 132 133
f 119 133 120
f 121 134 135
f 121 135 122
f 122 135 136
f 122 136 123
f 123 136 137
f 123 137 124
f 124 137 138
f 124 138 125
f 125 138 139
f 125 139 126
f 126 139 140
f 126 140 127
f 127 140 141
f 127 141 128
f 128 141 142
f 128 142 129
f 129 142 143
f 129 143 130
f 130 143 144
f 130 144 131
f 131 144 145
f 131 145 132
f 132 145 146
f 132 146 133
f 134 147 148
f 134 148 135
f 135 148 149
f 135 149 136
f 136 149 150
f 136 150 137
f 137 150 151
f 137 151 138
f 138 151 152
f 138 152 139
f 139 152 153
f 139 153 140
f 140 153 154
f 140 154 141
f 141 154 155
f 141 155 142
f 142 155 156
f 142 156 143
f 143 156 157
f 143 157 144
f 144 157 158
f 144 158 145
f 145 158 159
f 145 159 146
f 147 160 161
f 147 161 148
f 148 161 162
f 148 162 149
f 149 162 163
f 149 163 150
f 150 163 164
f 150 164 151
f 151 164 165
f 151 165 152
f 152 165 166
f 152 166 153
f 153 166 167
f 153 167 154
f 154 167 168
f 154 168 155
f 155 168 169
f 155 169 156
f 156 169 170
f 156 170 157
f 157 170 171
f 157 171 158
f 158 171 172
f 158 172 159
f 160 173 174
f 160 174 161
f 161 174 175
f 161 175 162
f 162 175 176
f 162 176 163
f 163 176 177
f 163 177 164
f 164 177 178
f 164 178 165
f 165 178 179
f 165 179 166
f 166 179 180
f 166 180 167
f 167 180 181
f 167 181 168
f 168 181 182
f 168 182 169
f 169 182 183
f 169 183 170
f 170 183 184
f 170 184 171
f 171 184 185
f 171 185 172
f 173 186 187
f 173 187 174
f 174 187 188
f 174 188 175
f 175 188 189
f 175 189 176
f 176 189 190
f 176 190 177
f 177 190 191
f 177 191 178
f 178 191 192
f 178 192 179
f 179 192 193
f 179 193 180
f 180 193 194
f 180 194 181
f 181 194 195
f 181 195 182
f 182 195 196
f 182 196 183
f 183 196 197
f 183 197 184
f 184 197 198
f 184 198 185
f 186 199 200
f 186 200 187
f 187 200 201
f 187 201 188
f 188 201 202
f 188 202 189
f 189 202 203
f 189 203 190
f 190 203 204
f 190 204 191
f 191 204 205
f 191 205 192
f 192 205 206
f 192 206 193
f 193 206 207
f 193 207 194
f 194 207 208
f 194 208 195
f 195 208 209
f 195 209 196
f 196 209 210
f 196 210 197
f 197 210 211
f 197 211 198
f 199 212 213
f 199 213 200
f 200 213 214
f 200 214 201
f 201 214 215
f 201 215 202
f 202 215 216
f 202 216 203
f 203 216 217
f 203 217 204
f 204 217 218
f 204 218 205
f 205 218 219
f 205 219 206
f 206 219 220
f 206 220 207
f 207 220 221
f 207 221 208
f 208 221 222
f 208 222 209
f 209 222 223
f 209 223 210
f 210 223 224
f 210 224 211
f 212 225 226
f 212 226 213
f 213 226 227
f 213 227 214
f 214 227 228
f 214 228 215
f 215 228 229
f 215 229 216
f 216 229 230
f 216 230 217
f 217 230 231
f 217 231 218
f 218 231 232
f 218 232 219
f 219 232 233
f 219 233 220
f 220 233 234
f 220 234 221
f 221 234 235
f 221 235 222
f 222 235 236
f 222 236 223
f 223 236 237
f 223 237 224
f 225 238 239
f 225 239 226
f 226 239 240
f 226 240 227
f 227 240 241
f 227 241 228
f 228 241 242
f 228 242 229
f 229 242 243
f 229 243 230
f 230 243 244
f 230 244 231
f 231 244 245
f 231 245 232
f 232 245 246
f 232 246 233
f 233 246 247
f 233 247 234
f 234 247 248
f 234 248 235
f 235 248 249
f 235 249 236
f 236 249 250
f 236 250 237
f 238 251 252
f 238 252 239
f 239 252 253
f 239 253 240
f 240 253 254
f 240 254 241
f 241 254 255
f 241 255 242
f 242 255 256
f 242 256 243
f 243 256 257
f 243 257 244
f 244 257 258
f 244 258 245
f 245 258 259
f 245 259 246
f 246 259 260
f 246 260 247
f 247 260 261
f 247 261 248
f 248 261 262
f 248 262 249
f 249 262 263
f 249 263 250
f 251 264 265
f 251 265 252
f 252 265 266
f 252 266 253
f 253 266 267
f 253 267 254
f 254 267 268
f 254 268 255
f 255 268 269
f 255 269 256
f 256 269 270
f 256 270 257
f 257 270 271
f 257 271 258
f 258 271 272
f 258 272 259
f 259 272 273
f 259 273 260
f 260 273 274
f 260 274 261
f 261 274 275
f 261 275 262
f 262 275 276
f 262 276 263
f 264 277 278
f 264 278 265
f 265 278 279
f 265 279 266
f 266 279 280
f 266 280 267
f 267 280 281
f 267 281 268
f 268 281 282
f 268 282 269
f 269 282 283
f 269 283 270
f 270 283 284
f 270 284 271
f 271 284 285
f 271 285 272
f 272 285 286
f 272 286 273
f 273 286 287
f 273 287 274
f 274 287 288
f 274 288 275
f 275 288 289
f 275 289 276
f 277 290 291
f 277 291 278
f 278 291 292
f 278 292 279
f 279 292 293
f 279 293 280
f 280 293 294
f 280 294 281
f 281 294 295
f 281 295 282
f 282 295 296
f 282 296 283
f 283 296 297
f 283 297 284
f 284 297 298
f 284 298 285
f 285 298 299
f 285 299 286
f 286 299 300
f 286 300 287
f 287 300 301
f 287 301 288
f 288 301 302
f 288 302 289
f 2 291 290
f 2 292 291
f 2 293 292
f 2 294 293
f 2 295 294
f 2 296 295
f 2 297 296
f 2 298 297
f 2 299 298
f 2 300 299
f 2 301 300
f 2 302 301
f 3 1 4
f 3 4 17
f 3 17 30
f 3 30 43
f 3 43 56
f 3 56 69
f 3 69 82
f 3 82 95
f 3 95 108
f 3 108 121
f 3 121 134
f 3 134 147
f 3 147 160
f 3 160 173
f 3 173 186
f 3 186 199
f 3 199 212
f 3 212 225
f 3 225 238
f 3 238 251
f 3 251 264
f 3 264 277
f 3 277 290
f 3 290 2
f 3 16 1
f 3 29 16
f 3 42 29
f 3 55 42
f 3 68 55
f 3 81 68
f 3 94 81
f 3 107 94
f 3 120 107
f 3 133 120
f 3 146 133
f 3 159 146
f 3 172 159
f 3 185 172
f 3 198 185
f 3 211 198
f 3 224 211
f 3 237 224
f 3 250 237
f 3 263 250
f 3 276 263
f 3 289 276
f 3 302 289
f 3 2 302
